<mxfile host="app.diagrams.net" modified="2024-07-05T16:50:28.872Z" agent="Mozilla/5.0 (Macintosh; Intel Mac OS X 10_15_7) AppleWebKit/537.36 (KHTML, like Gecko) Chrome/126.0.0.0 Safari/537.36" etag="bB5-xs1dQrgoWlS67mcQ" version="24.6.4" type="github">
  <diagram name="Page-1" id="kx9mjVeSApdWlKxNlJxu">
    <mxGraphModel dx="1242" dy="785" grid="1" gridSize="10" guides="1" tooltips="1" connect="1" arrows="1" fold="1" page="1" pageScale="1" pageWidth="827" pageHeight="1169" math="0" shadow="0">
      <root>
        <mxCell id="0" />
        <mxCell id="1" parent="0" />
        <mxCell id="43K7ntACY7Cuz89I6Wnu-2" value="Graph" style="rounded=0;whiteSpace=wrap;html=1;" vertex="1" parent="1">
          <mxGeometry x="180" y="750" width="90" height="30" as="geometry" />
        </mxCell>
        <mxCell id="43K7ntACY7Cuz89I6Wnu-4" value="Prims" style="text;html=1;align=center;verticalAlign=middle;whiteSpace=wrap;rounded=0;" vertex="1" parent="1">
          <mxGeometry x="529" y="650" width="80" height="30" as="geometry" />
        </mxCell>
        <mxCell id="43K7ntACY7Cuz89I6Wnu-6" value="Stack" style="rounded=0;whiteSpace=wrap;html=1;" vertex="1" parent="1">
          <mxGeometry x="180" y="200" width="90" height="30" as="geometry" />
        </mxCell>
        <mxCell id="43K7ntACY7Cuz89I6Wnu-7" value="Queue" style="rounded=0;whiteSpace=wrap;html=1;" vertex="1" parent="1">
          <mxGeometry x="180" y="250" width="90" height="30" as="geometry" />
        </mxCell>
        <mxCell id="43K7ntACY7Cuz89I6Wnu-8" value="Tree" style="rounded=0;whiteSpace=wrap;html=1;" vertex="1" parent="1">
          <mxGeometry x="140" y="500" width="90" height="30" as="geometry" />
        </mxCell>
        <mxCell id="43K7ntACY7Cuz89I6Wnu-9" value="Greedy" style="rounded=0;whiteSpace=wrap;html=1;" vertex="1" parent="1">
          <mxGeometry x="470" y="340" width="90" height="30" as="geometry" />
        </mxCell>
        <mxCell id="43K7ntACY7Cuz89I6Wnu-10" value="Kruskals" style="text;html=1;align=center;verticalAlign=middle;whiteSpace=wrap;rounded=0;" vertex="1" parent="1">
          <mxGeometry x="529" y="695" width="80" height="25" as="geometry" />
        </mxCell>
        <mxCell id="43K7ntACY7Cuz89I6Wnu-12" style="edgeStyle=orthogonalEdgeStyle;rounded=0;orthogonalLoop=1;jettySize=auto;html=1;curved=1;" edge="1" parent="1" source="43K7ntACY7Cuz89I6Wnu-11" target="43K7ntACY7Cuz89I6Wnu-4">
          <mxGeometry relative="1" as="geometry" />
        </mxCell>
        <mxCell id="43K7ntACY7Cuz89I6Wnu-13" style="edgeStyle=orthogonalEdgeStyle;shape=connector;curved=1;rounded=0;orthogonalLoop=1;jettySize=auto;html=1;strokeColor=default;align=center;verticalAlign=middle;fontFamily=Helvetica;fontSize=11;fontColor=default;labelBackgroundColor=default;endArrow=classic;" edge="1" parent="1" source="43K7ntACY7Cuz89I6Wnu-11" target="43K7ntACY7Cuz89I6Wnu-10">
          <mxGeometry relative="1" as="geometry" />
        </mxCell>
        <mxCell id="43K7ntACY7Cuz89I6Wnu-11" value="MST" style="rounded=0;whiteSpace=wrap;html=1;" vertex="1" parent="1">
          <mxGeometry x="369" y="680" width="90" height="30" as="geometry" />
        </mxCell>
      </root>
    </mxGraphModel>
  </diagram>
</mxfile>
